
<svg width="120" height="46" fill="none" xmlns="http://www.w3.org/2000/svg" id="svg187455450_8590"><g clip-path="url(#svg187455450_8590_a)" fill="#000"><path d="M62.42 25.272c0 6.79-2.65 9.82-8.574 9.82-2.386 0-4.231-.496-5.591-1.557 1.373 1.515 3.455 2.245 6.313 2.245 4.94 0 8.408-2.988 8.408-9.778l.18-24.831-.735-.661v24.762Z"></path><path d="M53.569 29.224c-.306-.647-.43-1.763-.43-3.54V.827l-.736-.661v24.831c.014 2.81.306 3.966 1.166 4.228Zm-15.345-.137h.582v-9.572h4.426v-4.89l-.569-.591v4.889h-4.44v10.164ZM44.482 5.66h-6.23v7.837h.569V6.253h6.23l.027-5.289-.596-.496V5.66Zm-.069 29.06H31.675l.416.605h12.89v-5.04l-.57-.496v4.93Zm42.469-15.797v9.888h.569v-9.296h4.426v-4.89l-.57-.591v4.889h-4.425Zm.013-5.798.57.014V6.253h6.229l.028-5.289-.597-.496V5.66h-6.23v7.465Zm15.082-11.899L101.38.73v27.957l.625.055-.028-27.516Zm-8.782 33.576H80.472l.416.592h12.875v-5.04l-.569-.496v4.944Zm14.068 0H94.971l.416.592h12.445v-5.04l-.569-.496v4.944ZM19.605 22.848v11.94h-6.313l.527.593h6.535V23.454h.416l-.138-.606h-1.027Zm.929-17.243h-.86v12.243h.749V6.198h.86a2.1 2.1 0 0 1 .666.096c-.36-.524-.846-.689-1.415-.689Zm7.034 14.943c1.887-1.666 2.692-4.586 2.692-8.759 0-4.655-1.221-8.015-3.566-9.874 2.012 1.969 3.108 5.164 3.108 9.378 0 4.173-1.04 7.396-2.927 9.062l-.125.11 3.51 14.365h-6.3l.14.592h6.923l-3.58-14.764.125-.11ZM78.932 5.137l-8.644 23.757h.846L79.57 5.688V.785l-.638-.647v4.999Zm-.042 29.679H63.836l.374.55h15.318v-5.054l-.638-.44v4.944ZM71.676 5.605H64.46l.486.55h6.534l.195-.55Z"></path><path d="M43.83 29.417h-6.327V18.014h4.426v-4.297h-4.426V4.779h6.23V0H31.62v33.962h12.21v-4.545Zm17.814-4.324V0H56.15v24.996c0 2.727-.166 4.807-2.22 4.807-2.053 0-2.22-2.218-2.22-4.903V0h-5.84v25.244c0 6.432 2.26 9.062 7.81 9.062 5.578-.014 7.964-2.768 7.964-9.213Zm16.496 4.476h-8.893l8.894-24.487V0H64.155l.083 4.793 8.339-.028-8.88 24.35v4.847h14.444v-4.393Zm14.306-.152h-6.327V18.014h4.426v-4.297h-4.426V4.779h6.23V0H80.236v33.962h12.21v-4.545Zm14.124 0h-5.98V0h-5.897v33.962h11.877v-4.545Zm-80.583-9.42.403-.358c1.748-1.556 2.719-4.614 2.719-8.608C29.109 4.021 25.973 0 20.52 0h-7.229v33.962h5.647V22.035h2.164l2.678 11.927h5.62l-3.414-13.965Zm-5.522-1.735h-1.54V4.779h1.485c2.372 0 2.844 2.438 2.844 6.349.014 5.068-.805 7.134-2.789 7.134ZM2.317 45.958H0l.125-.413v-2.769L0 42.377h2.317l.569.565v.688l-.389.386.444.44v.896l-.624.606Zm-.472-2.59-.083-.15-.153-.084h-.43l-.055.056v.454l.055.055h.444l.153-.082.083-.152v-.096h-.014Zm.028 1.364-.07-.151-.207-.097h-.417l-.055.055v.565l.083.083h.389l.208-.097.083-.151v-.207h-.014Zm4.801-1.942-.916 1.79v.84l.18.537H4.593l.18-.537v-.799l-.944-1.845-.29-.413h1.276l.055.358.389.771.055.152.056-.152.388-.771.056-.358h1.151l-.291.427Zm4.828.4h-.735l-.153.082-.083.151v.097l.11.096.805.18.5.481v.992l-.68.661h-1.54l-.36-1.047.54.18h.75l.152-.083.083-.152v-.206l-.124-.124-.805-.152-.472-.454v-.84l.68-.661h1.457l.333.977-.458-.179Zm3.83 2.768h-1.457l-.735-.716v-2.149l.735-.716h1.401l.361 1.047-.624-.207h-.361l-.32.152-.124.261v1.075l.125.261.319.152h.402l.625-.207-.347 1.047Zm3.094-.001.125-.413v-1.019l-.056-.055h-.624l-.056.055v1.02l.125.412h-1.249l.125-.413v-2.768l-.125-.413h1.25l-.126.413v.771l.056.055h.624l.055-.055v-.771l-.124-.413h1.248l-.125.413v2.768l.125.413h-1.248Zm4.828.001h-1.61l-.68-.661v-2.245l.68-.661h1.61l.68.66v2.245l-.68.662Zm-.36-2.48-.112-.206-.208-.096h-.263l-.209.096-.097.207v1.336l.098.206.208.096h.263l.208-.096.111-.206v-1.336Zm4.272 2.479-.388-1.157-.097-.055h-.292l-.055.055v.744l.125.413H25.21l.125-.413v-2.768l-.125-.413h2.261l.68.66v.992l-.471.455.36.978.292.482h-1.166v.027Zm-.027-2.451-.098-.207-.208-.096h-.444l-.055.055v.633l.055.056h.444l.208-.097.098-.206v-.138Zm4.564 2.451H29.44l.125-.413v-2.768l-.125-.413h2.193l.332.978-.457-.152h-.902l-.042.055v.358l.056.055h.333l.388-.124v1.075l-.388-.124h-.333l-.056.055v.482l.083.082h.875l.54-.179-.36 1.033Zm3.982 0 .124-.413V43.96l.028-.206-.083.206-.832 1.997h-.028l-.833-1.997-.083-.206.028.206v1.584l.125.413h-1.124l.125-.413v-2.768l-.125-.413h1.304l.597 1.446.027.124.028-.124.597-1.446h1.332l-.125.413v2.768l.125.413h-1.207Zm6.188 0 .125-.413v-1.019l-.056-.055h-.624l-.055.055v1.02l.124.412H40.14l.125-.413v-2.768l-.125-.413h1.248l-.124.413v.771l.055.055h.624l.056-.055v-.771l-.125-.413h1.249l-.125.413v2.768l.125.413h-1.249Zm4.329.001.056-.413-.084-.303-.055-.055h-.86l-.056.055-.083.303.056.413h-1.194l.209-.413.735-2.837-.083-.331h1.775l-.083.33.736 2.838.208.413h-1.277Zm-.485-2.686-.028-.179-.028.18-.263 1.1.055.056h.472l.055-.055-.263-1.102Zm4.383 2.686.056-.413-.083-.303-.056-.055h-.86l-.055.055-.083.303.055.413h-1.193l.208-.413.735-2.837-.083-.331h1.776l-.083.33.735 2.838.208.413h-1.276Zm-.47-2.686-.029-.179-.027.18-.264 1.1.055.056h.472l.056-.055-.264-1.102Zm4.564 2.685-.389-1.157-.097-.055h-.291l-.056.055v.744l.125.413h-1.249l.125-.413v-2.768l-.125-.413H54.5l.68.66v.992l-.472.455.36.978.292.482h-1.165v.027Zm-.014-2.451-.097-.207-.209-.096h-.457l-.056.055v.633l.056.056h.444l.208-.097.097-.206v-.138h.014Zm4.26-.316h-.736l-.153.082-.083.151v.097l.111.096.805.18.5.481v.992l-.68.661h-1.54l-.361-1.047.54.18h.75l.153-.083.083-.152v-.206l-.125-.124-.819-.152-.471-.454v-.84l.68-.661h1.456l.333.977-.444-.179Zm4.592-.4v3.168h-.708l-1.151-1.887-.111-.262.028.262v1.487l.124.413h-1.151l.125-.413V42.79l-.153-.413h1.124l.916 1.515.097.262-.028-.262V42.79l-.125-.413h1.124l-.111.413Zm1.443 3.167.124-.413v-2.768l-.124-.413h1.276l-.125.413v2.768l.125.413h-1.276Zm4.357-3.167v2.245l.055.262-.68.66h-1.332l-.36-1.046.624.207h.222l.32-.152.124-.261V42.83l-.153-.454h1.305l-.125.413Zm3.62 3.167h-2.275l.125-.413v-2.768l-.125-.413h2.275l.736.716v2.148l-.736.73Zm-.319-2.41-.125-.261-.263-.124h-.333l-.056.055v1.818l.083.082h.32l.263-.124.125-.261v-1.185h-.014Zm4.593 2.41H74.45l.125-.413v-2.768l-.125-.413h2.192l.333.978-.457-.152h-.902l-.042.055v.358l.056.055h.333l.388-.124v1.075l-.388-.124h-.333l-.056.055v.482l.083.082h.874l.541-.179-.346 1.033Zm3.288 0-.388-1.157-.111-.055h-.292l-.055.055v.744l.125.413h-1.25l.126-.413v-2.768l-.125-.413h2.275l.68.66v.992l-.472.455.361.978.291.482h-1.165v.027Zm-.028-2.451-.11-.207-.209-.096h-.444l-.055.055v.633l.055.056h.444l.208-.097.111-.206v-.138Zm6.494 2.451h-2.276l.125-.413v-2.768l-.125-.413h2.192l.333.978-.458-.152h-.901l-.042.055v.358l.055.055h.333l.389-.124v1.075l-.389-.124h-.333l-.055.055v.482l.083.082h.874l.541-.179-.346 1.033Zm4.273-3.167v3.168h-.708l-1.152-1.887-.097-.262.028.262v1.487l.125.413h-1.152l.125-.413V42.79l-.153-.413h1.124l.916 1.515.111.262-.028-.262V42.79l-.124-.413h1.123l-.138.413Zm5.674 3.167H94.11l.125-.413v-2.768l-.125-.413h2.317l.57.564v.689l-.39.386.445.44v.895l-.625.62Zm-.458-2.589-.083-.151-.152-.07h-.444l-.056.056v.454l.056.055h.444l.152-.082.084-.152v-.11Zm.028 1.364-.083-.152-.208-.096h-.416l-.056.055v.564l.083.083h.389l.208-.096.083-.152v-.206Zm4.107 1.226.056-.413-.084-.303-.055-.055h-.86l-.056.055-.083.303.055.413H97.87l.208-.413.736-2.837-.084-.331h1.777l-.084.33.736 2.838.208.413h-1.263Zm-.486-2.686-.027-.179-.028.18-.264 1.1.056.056h.471l.056-.055-.264-1.102Zm4.579 2.685-.388-1.157-.111-.055h-.292l-.055.055v.744l.125.413h-1.249l.125-.413v-2.768l-.125-.413h2.275l.68.66v.992l-.471.455.36.978.292.482h-1.166v.027Zm-.014-2.451-.111-.207-.208-.096h-.444l-.055.041v.634l.055.055h.444l.208-.097.111-.206v-.124Zm4.607 2.451h-2.317l.125-.413v-2.768l-.125-.413h2.317l.569.564v.689l-.389.386.444.44v.895l-.624.62Zm-.472-2.589-.083-.151-.153-.083h-.444l-.055.055v.455l.055.055h.444l.153-.083.083-.151v-.097Zm.028 1.364-.084-.152-.208-.096h-.416l-.055.055v.564l.083.083h.388l.208-.096.084-.152v-.206Zm2.344 1.225.125-.413v-2.768l-.125-.413h1.277l-.125.413v2.768l.125.413h-1.277Zm4.856 0h-2.275l.125-.413v-2.768l-.125-.413h2.192l.333.978-.458-.152h-.902l-.041.055v.358l.055.055h.333l.389-.124v1.075l-.389-.124h-.333l-.055.055v.482l.083.082h.874l.541-.179-.347 1.033Zm3.289 0-.389-1.157-.111-.055h-.291l-.056.055v.744l.125.413h-1.248l.124-.413v-2.768l-.124-.413h2.275l.68.66v.992l-.472.455.361.978.291.482h-1.165v.027Zm-.028-2.451-.111-.207-.208-.096h-.444l-.056.055v.633l.056.056h.444l.208-.097.111-.206v-.138ZM104.183 1.914c0-.854.694-1.57 1.582-1.57a1.55 1.55 0 0 1 1.567 1.556v.014c0 .854-.693 1.556-1.581 1.556a1.552 1.552 0 0 1-1.568-1.556Zm2.983-.014c0-.785-.611-1.404-1.401-1.404-.805 0-1.416.633-1.416 1.404v.014c0 .772.611 1.405 1.402 1.405.804 0 1.415-.633 1.415-1.419Zm-2.04-.853h.736c.222 0 .388.068.499.179a.465.465 0 0 1 .139.344v.014c0 .261-.153.427-.389.496l.444.62h-.374l-.403-.565h-.346v.564h-.32V1.047h.014Zm.722.798c.208 0 .319-.096.319-.248v-.013c0-.166-.125-.248-.319-.248h-.403v.523h.403v-.014Z"></path></g><defs><clipPath id="svg187455450_8590_a"><path fill="#fff" d="M0 0h120v46H0z"></path></clipPath></defs></svg>